<svg xmlns="http://www.w3.org/2000/svg" viewBox="0 0 512 512" role="img" aria-label="Browse Bridge">
  <rect width="512" height="512" rx="96" fill="#1A1410"/>
  <defs>
    <linearGradient id="sand" x1="0" y1="0" x2="1" y2="1">
      <stop offset="0%" stop-color="#EADBC3"/>
      <stop offset="100%" stop-color="#DDC49F"/>
    </linearGradient>
    <linearGradient id="orange" x1="0" y1="0" x2="1" y2="1">
      <stop offset="0%" stop-color="#DD762F"/>
      <stop offset="100%" stop-color="#BD5419"/>
    </linearGradient>
    <linearGradient id="bridge" x1="0" y1="0" x2="1" y2="0">
      <stop offset="0%" stop-color="#D96D2C"/>
      <stop offset="55%" stop-color="#C65B20"/>
      <stop offset="100%" stop-color="#A94715"/>
    </linearGradient>
  </defs>
  <g transform="translate(86 140) scale(1.05)">
    <rect y="18" width="160" height="126" rx="24" fill="url(#sand)"/>
    <circle cx="25" cy="43" r="8" fill="#FFFDF8"/>
    <circle cx="50" cy="43" r="8" fill="#FFFDF8"/>
    <circle cx="75" cy="43" r="8" fill="#FFFDF8"/>
    <rect x="145" y="28" width="166" height="116" rx="24" fill="url(#orange)"/>
    <circle cx="234" cy="49" r="8" fill="#FFFDF8"/>
    <circle cx="259" cy="49" r="8" fill="#FFFDF8"/>
    <circle cx="284" cy="49" r="8" fill="#FFFDF8"/>
    <path d="M52 145c27-70 90-76 138-52 33 16 54 36 71 52h-39c-19-19-36-32-59-39-44-14-82 3-103 39Z" fill="url(#bridge)"/>
    <path d="M83 145c20-34 50-46 77-46 28 0 53 12 73 46h-28c-12-21-29-31-46-31-19 0-37 10-48 31Z" fill="#F7F2E8"/>
  </g>
</svg>
